<svg width="40" height="64" viewBox="0 0 40 64" fill="none" xmlns="http://www.w3.org/2000/svg">
<path d="M3.43813 52.528C4.02213 52.528 4.53013 52.612 4.96213 52.78C5.39413 52.948 5.79813 53.204 6.17413 53.548L5.39413 54.448C5.09813 54.2 4.79813 54.02 4.49413 53.908C4.19813 53.796 3.87813 53.74 3.53413 53.74C3.15013 53.74 2.83813 53.828 2.59813 54.004C2.36613 54.172 2.25013 54.412 2.25013 54.724C2.25013 54.932 2.29413 55.104 2.38213 55.24C2.47813 55.376 2.64613 55.504 2.88613 55.624C3.12613 55.744 3.48213 55.876 3.95413 56.02C4.77013 56.276 5.38213 56.596 5.79013 56.98C6.20613 57.356 6.41412 57.908 6.41412 58.636C6.41412 59.132 6.28613 59.572 6.03013 59.956C5.78213 60.34 5.42213 60.64 4.95013 60.856C4.47813 61.072 3.91813 61.18 3.27013 61.18C2.63813 61.18 2.07013 61.08 1.56613 60.88C1.07013 60.672 0.642125 60.392 0.282125 60.04L1.09813 59.128C1.41813 59.4 1.75013 59.608 2.09413 59.752C2.43813 59.888 2.81813 59.956 3.23413 59.956C3.69013 59.956 4.05813 59.848 4.33813 59.632C4.61813 59.416 4.75813 59.112 4.75813 58.72C4.75813 58.48 4.71013 58.284 4.61413 58.132C4.51813 57.972 4.35413 57.832 4.12213 57.712C3.89013 57.584 3.55413 57.452 3.11413 57.316C2.23413 57.044 1.59813 56.716 1.20613 56.332C0.814125 55.948 0.618125 55.444 0.618125 54.82C0.618125 54.364 0.738125 53.964 0.978125 53.62C1.21813 53.276 1.55013 53.008 1.97413 52.816C2.40613 52.624 2.89413 52.528 3.43813 52.528ZM14.101 54.472C14.661 54.472 15.101 54.644 15.421 54.988C15.741 55.332 15.901 55.804 15.901 56.404V61H14.365V56.644C14.365 56.268 14.297 56.004 14.161 55.852C14.033 55.7 13.841 55.624 13.585 55.624C13.329 55.624 13.093 55.708 12.877 55.876C12.661 56.036 12.453 56.268 12.253 56.572V61H10.717V52.12L12.253 51.964V55.408C12.765 54.784 13.381 54.472 14.101 54.472ZM23.2816 54.472C24.2176 54.472 24.9456 54.772 25.4656 55.372C25.9936 55.964 26.2576 56.78 26.2576 57.82C26.2576 58.484 26.1376 59.072 25.8976 59.584C25.6576 60.088 25.3136 60.48 24.8656 60.76C24.4176 61.04 23.8856 61.18 23.2696 61.18C22.3336 61.18 21.6016 60.884 21.0736 60.292C20.5456 59.692 20.2816 58.868 20.2816 57.82C20.2816 57.156 20.4016 56.572 20.6416 56.068C20.8816 55.564 21.2256 55.172 21.6736 54.892C22.1296 54.612 22.6656 54.472 23.2816 54.472ZM23.2816 55.636C22.3616 55.636 21.9016 56.364 21.9016 57.82C21.9016 58.572 22.0136 59.128 22.2376 59.488C22.4696 59.84 22.8136 60.016 23.2696 60.016C23.7256 60.016 24.0656 59.836 24.2896 59.476C24.5216 59.116 24.6376 58.564 24.6376 57.82C24.6376 57.076 24.5216 56.528 24.2896 56.176C24.0656 55.816 23.7296 55.636 23.2816 55.636ZM33.9854 54.472C34.7854 54.472 35.3774 54.764 35.7614 55.348C36.1454 55.932 36.3374 56.752 36.3374 57.808C36.3374 58.464 36.2374 59.048 36.0374 59.56C35.8454 60.064 35.5574 60.46 35.1734 60.748C34.7974 61.036 34.3494 61.18 33.8294 61.18C33.1574 61.18 32.6254 60.948 32.2334 60.484V63.448L30.6974 63.616V54.652H32.0414L32.1254 55.432C32.3734 55.112 32.6574 54.872 32.9774 54.712C33.2974 54.552 33.6334 54.472 33.9854 54.472ZM33.3974 60.004C34.2854 60.004 34.7294 59.276 34.7294 57.82C34.7294 57.044 34.6294 56.484 34.4294 56.14C34.2294 55.796 33.9294 55.624 33.5294 55.624C33.2734 55.624 33.0334 55.704 32.8094 55.864C32.5854 56.016 32.3934 56.224 32.2334 56.488V59.344C32.5294 59.784 32.9174 60.004 33.3974 60.004Z" fill="white"/>
<g filter="url(#filter0_d_20_5)">
<path fill-rule="evenodd" clip-rule="evenodd" d="M12 20.5832C12 7.50243 17.4217 0.445137 19.6388 0.44458C21.8563 0.445137 27.2777 7.50198 27.2777 20.5832C27.2777 33.8001 22.5346 42.7602 22.3333 43.1352L22.1371 43.4998H17.1406L16.9444 43.1352C16.7431 42.7601 12 33.8001 12 20.5832ZM18.9447 2.28839V2.28831L18.9448 2.28827L18.9447 2.28839ZM18.9447 2.28839V24.0559H20.3336V2.28831C22.1113 3.87511 25.8891 9.64787 25.8891 20.5834C25.8891 24.2327 25.5054 27.5625 24.9585 30.4705C24.1547 29.3264 22.6773 27.7692 19.9848 26.2309C13.4381 22.4896 13.5176 17.3523 13.523 17.1354H13.5212C14.2035 8.41873 17.3648 3.70008 18.9447 2.28839ZM13.5248 24.2244C13.4658 23.4015 13.4311 22.5578 13.412 21.6984C14.4051 23.5438 16.1672 25.6496 19.2953 27.4376C23.7407 29.9786 24.5018 32.492 24.5209 32.5553L24.5211 32.5559C24.1808 34.042 23.8076 35.3909 23.4343 36.5784C22.8492 35.542 21.818 34.2677 19.9968 33.1826C14.5124 29.917 13.6461 25.1791 13.5248 24.2244ZM20.3335 42.1114H21.2936L21.2934 42.1111C21.5694 41.5416 22.1284 40.3229 22.7639 38.5694C22.6284 37.9913 21.9792 35.9792 19.2847 34.375C16.8352 32.9151 15.224 31.1772 14.1598 29.5488C15.297 36.2105 17.3595 40.8232 17.9845 42.1114H18.9446V37.2501H20.3335V42.1114Z" fill="white"/>
<path d="M19.6388 0.44458L19.6389 0.31958L19.6388 0.31958L19.6388 0.44458ZM22.3333 43.1352L22.4433 43.1945L22.4434 43.1944L22.3333 43.1352ZM22.1371 43.4998V43.6248H22.2118L22.2471 43.5591L22.1371 43.4998ZM17.1406 43.4998L17.0306 43.5591L17.0659 43.6248H17.1406V43.4998ZM16.9444 43.1352L16.8343 43.1944L16.8344 43.1945L16.9444 43.1352ZM18.9447 2.28831L18.9044 2.16998L18.8197 2.19881V2.28831H18.9447ZM18.9448 2.28827L19.0281 2.38149L18.9045 2.16993L18.9448 2.28827ZM18.9447 24.0559H18.8197V24.1809H18.9447V24.0559ZM20.3336 24.0559V24.1809H20.4586V24.0559H20.3336ZM20.3336 2.28831L20.4168 2.19506L20.2086 2.00919V2.28831H20.3336ZM24.9585 30.4705L24.8563 30.5424L25.0266 30.7849L25.0814 30.4936L24.9585 30.4705ZM19.9848 26.2309L19.9227 26.3395L19.9227 26.3395L19.9848 26.2309ZM13.523 17.1354L13.6479 17.1385L13.6511 17.0104H13.523V17.1354ZM13.5212 17.1354L13.3966 17.1256L13.3861 17.2604H13.5212V17.1354ZM13.412 21.6984L13.522 21.6392L13.287 21.7012L13.412 21.6984ZM13.5248 24.2244L13.3999 24.2334L13.4008 24.2402L13.5248 24.2244ZM19.2953 27.4376L19.2333 27.5462H19.2333L19.2953 27.4376ZM24.5209 32.5553L24.4013 32.5915L24.4013 32.5916L24.5209 32.5553ZM24.5211 32.5559L24.643 32.5838L24.6504 32.5513L24.6407 32.5195L24.5211 32.5559ZM23.4343 36.5784L23.3255 36.6399L23.4671 36.8909L23.5536 36.6159L23.4343 36.5784ZM19.9968 33.1826L20.0608 33.0752L20.0608 33.0752L19.9968 33.1826ZM21.2936 42.1114V42.2364H21.5094L21.402 42.0492L21.2936 42.1114ZM20.3335 42.1114H20.2085V42.2364H20.3335V42.1114ZM21.2934 42.1111L21.1809 42.0566L21.1521 42.116L21.185 42.1733L21.2934 42.1111ZM22.7639 38.5694L22.8814 38.612L22.894 38.5771L22.8856 38.5409L22.7639 38.5694ZM19.2847 34.375L19.2207 34.4824L19.2208 34.4824L19.2847 34.375ZM14.1598 29.5488L14.2645 29.4804L14.0366 29.5698L14.1598 29.5488ZM17.9845 42.1114L17.872 42.166L17.9062 42.2364H17.9845V42.1114ZM18.9446 42.1114V42.2364H19.0696V42.1114H18.9446ZM18.9446 37.2501V37.1251H18.8196V37.2501H18.9446ZM20.3335 37.2501H20.4585V37.1251H20.3335V37.2501ZM19.6388 0.31958C19.3302 0.319658 18.9803 0.441678 18.6092 0.666672C18.2368 0.892539 17.8346 1.22731 17.4191 1.66605C16.5882 2.54364 15.6958 3.8462 14.8753 5.5547C13.2339 8.97261 11.875 14.0259 11.875 20.5832H12.125C12.125 14.0598 13.4769 9.04401 15.1007 5.66293C15.9127 3.97194 16.7915 2.69251 17.6007 1.83794C18.0053 1.41058 18.3904 1.09172 18.7389 0.880438C19.0887 0.668284 19.3932 0.569642 19.6389 0.56958L19.6388 0.31958ZM27.4027 20.5832C27.4027 14.0256 26.0439 8.97238 24.4025 5.55454C23.582 3.84606 22.6897 2.54355 21.8587 1.66598C21.4433 1.22726 21.041 0.892507 20.6686 0.666651C20.2975 0.441667 19.9475 0.319658 19.6389 0.31958L19.6388 0.56958C19.8846 0.569642 20.1891 0.668281 20.5389 0.880423C20.8874 1.09169 21.2725 1.41054 21.6772 1.83788C22.4863 2.69242 23.3651 3.9718 24.1772 5.66276C25.8008 9.04379 27.1527 14.0596 27.1527 20.5832H27.4027ZM22.4434 43.1944C22.6499 42.8099 27.4027 33.8288 27.4027 20.5832H27.1527C27.1527 33.7715 22.4194 42.7106 22.2231 43.0761L22.4434 43.1944ZM22.2471 43.5591L22.4433 43.1945L22.2232 43.076L22.027 43.4406L22.2471 43.5591ZM17.1406 43.6248H22.1371V43.3748H17.1406V43.6248ZM16.8344 43.1945L17.0306 43.5591L17.2507 43.4406L17.0545 43.076L16.8344 43.1945ZM11.875 20.5832C11.875 33.8288 16.6279 42.8097 16.8343 43.1944L17.0546 43.0761C16.8583 42.7105 12.125 33.7715 12.125 20.5832H11.875ZM18.8197 2.28831V2.28839H19.0697V2.28831H18.8197ZM18.9045 2.16993L18.9044 2.16998L18.9849 2.40665L18.9851 2.4066L18.9045 2.16993ZM19.0279 2.38161L19.0281 2.38149L18.8615 2.19504L18.8614 2.19516L19.0279 2.38161ZM19.0697 24.0559V2.28839H18.8197V24.0559H19.0697ZM20.3336 23.9309H18.9447V24.1809H20.3336V23.9309ZM20.2086 2.28831V24.0559H20.4586V2.28831H20.2086ZM26.0141 20.5834C26.0141 9.62212 22.2277 3.81143 20.4168 2.19506L20.2503 2.38157C21.995 3.93879 25.7641 9.67362 25.7641 20.5834H26.0141ZM25.0814 30.4936C25.6295 27.5791 26.0141 24.2415 26.0141 20.5834H25.7641C25.7641 24.224 25.3813 27.546 24.8357 30.4474L25.0814 30.4936ZM19.9227 26.3395C22.6003 27.8692 24.0636 29.4143 24.8563 30.5424L25.0608 30.3987C24.2458 29.2386 22.7542 27.6692 20.0468 26.1224L19.9227 26.3395ZM13.398 17.1323C13.392 17.3759 13.3219 22.5672 19.9227 26.3395L20.0468 26.1224C13.5543 22.412 13.6433 17.3286 13.6479 17.1385L13.398 17.1323ZM13.5212 17.2604H13.523V17.0104H13.5212V17.2604ZM18.8614 2.19518C17.2517 3.63356 14.0807 8.38565 13.3966 17.1256L13.6459 17.1451C14.3263 8.45181 17.4779 3.76661 19.028 2.3816L18.8614 2.19518ZM13.287 21.7012C13.3061 22.562 13.3409 23.4079 13.4001 24.2333L13.6495 24.2155C13.5906 23.3951 13.556 22.5535 13.5369 21.6956L13.287 21.7012ZM19.3574 27.3291C16.2495 25.5527 14.504 23.464 13.522 21.6392L13.3019 21.7577C14.3061 23.6236 16.0848 25.7465 19.2333 27.5462L19.3574 27.3291ZM24.6406 32.519C24.6125 32.4265 23.8316 29.8866 19.3574 27.3291L19.2333 27.5462C23.6498 30.0706 24.391 32.5575 24.4013 32.5915L24.6406 32.519ZM24.6407 32.5195L24.6405 32.5189L24.4013 32.5916L24.4015 32.5922L24.6407 32.5195ZM23.5536 36.6159C23.9278 35.4254 24.3019 34.0732 24.643 32.5838L24.3993 32.528C24.0597 34.0108 23.6873 35.3565 23.3151 36.541L23.5536 36.6159ZM19.9328 33.29C21.7338 34.363 22.7502 35.6208 23.3255 36.6399L23.5432 36.517C22.9483 35.4632 21.9022 34.1723 20.0608 33.0752L19.9328 33.29ZM13.4008 24.2402C13.5247 25.2153 14.4026 29.9971 19.9328 33.29L20.0608 33.0752C14.6221 29.8369 13.7675 25.1428 13.6488 24.2086L13.4008 24.2402ZM21.2936 41.9864H20.3335V42.2364H21.2936V41.9864ZM21.185 42.1733L21.1851 42.1737L21.402 42.0492L21.4018 42.0489L21.185 42.1733ZM22.6463 38.5268C22.0126 40.2757 21.4553 41.4905 21.1809 42.0566L21.4059 42.1656C21.6835 41.5928 22.2443 40.3701 22.8814 38.612L22.6463 38.5268ZM19.2208 34.4824C21.8794 36.0653 22.5125 38.0445 22.6422 38.5979L22.8856 38.5409C22.7444 37.9381 22.0789 35.8931 19.3487 34.2676L19.2208 34.4824ZM14.0552 29.6171C15.1291 31.2604 16.7537 33.012 19.2207 34.4824L19.3487 34.2676C16.9166 32.8181 15.319 31.0941 14.2645 29.4804L14.0552 29.6171ZM18.097 42.0569C17.4756 40.7761 15.4177 36.1748 14.283 29.5277L14.0366 29.5698C15.1763 36.2463 17.2435 40.8704 17.872 42.166L18.097 42.0569ZM18.9446 41.9864H17.9845V42.2364H18.9446V41.9864ZM18.8196 37.2501V42.1114H19.0696V37.2501H18.8196ZM20.3335 37.1251H18.9446V37.3751H20.3335V37.1251ZM20.4585 42.1114V37.2501H20.2085V42.1114H20.4585Z" fill="black"/>
</g>
<defs>
<filter id="filter0_d_20_5" x="7.875" y="0.31958" width="23.5277" height="51.3053" filterUnits="userSpaceOnUse" color-interpolation-filters="sRGB">
<feFlood flood-opacity="0" result="BackgroundImageFix"/>
<feColorMatrix in="SourceAlpha" type="matrix" values="0 0 0 0 0 0 0 0 0 0 0 0 0 0 0 0 0 0 127 0" result="hardAlpha"/>
<feOffset dy="4"/>
<feGaussianBlur stdDeviation="2"/>
<feColorMatrix type="matrix" values="0 0 0 0 0 0 0 0 0 0 0 0 0 0 0 0 0 0 0.25 0"/>
<feBlend mode="normal" in2="BackgroundImageFix" result="effect1_dropShadow_20_5"/>
<feBlend mode="normal" in="SourceGraphic" in2="effect1_dropShadow_20_5" result="shape"/>
</filter>
</defs>
</svg>
