<svg width="47" height="60" viewBox="0 0 47 60" fill="none" xmlns="http://www.w3.org/2000/svg">
<path d="M6.60219 48.528C7.18619 48.528 7.69419 48.612 8.12619 48.78C8.55819 48.948 8.96219 49.204 9.33819 49.548L8.55819 50.448C8.26219 50.2 7.96219 50.02 7.65819 49.908C7.36219 49.796 7.04219 49.74 6.69819 49.74C6.31419 49.74 6.00219 49.828 5.76219 50.004C5.53019 50.172 5.41419 50.412 5.41419 50.724C5.41419 50.932 5.45819 51.104 5.54619 51.24C5.64219 51.376 5.81019 51.504 6.05019 51.624C6.29019 51.744 6.64619 51.876 7.11819 52.02C7.93419 52.276 8.54619 52.596 8.95419 52.98C9.37019 53.356 9.57819 53.908 9.57819 54.636C9.57819 55.132 9.45019 55.572 9.19419 55.956C8.94619 56.34 8.58619 56.64 8.11419 56.856C7.64219 57.072 7.08219 57.18 6.43419 57.18C5.80219 57.18 5.23419 57.08 4.73019 56.88C4.23419 56.672 3.80619 56.392 3.44619 56.04L4.26219 55.128C4.58219 55.4 4.91419 55.608 5.25819 55.752C5.60219 55.888 5.98219 55.956 6.39819 55.956C6.85419 55.956 7.22219 55.848 7.50219 55.632C7.78219 55.416 7.92219 55.112 7.92219 54.72C7.92219 54.48 7.87419 54.284 7.77819 54.132C7.68219 53.972 7.51819 53.832 7.28619 53.712C7.05419 53.584 6.71819 53.452 6.27819 53.316C5.39819 53.044 4.76219 52.716 4.37019 52.332C3.97819 51.948 3.78219 51.444 3.78219 50.82C3.78219 50.364 3.90219 49.964 4.14219 49.62C4.38219 49.276 4.71419 49.008 5.13819 48.816C5.57019 48.624 6.05819 48.528 6.60219 48.528ZM15.381 57.18C14.893 57.18 14.509 57.04 14.229 56.76C13.957 56.472 13.821 56.068 13.821 55.548V48.108L15.357 47.94V55.5C15.357 55.796 15.477 55.944 15.717 55.944C15.837 55.944 15.957 55.924 16.077 55.884L16.401 56.964C16.081 57.108 15.741 57.18 15.381 57.18ZM25.5695 53.676C25.5695 53.756 25.5575 53.964 25.5335 54.3H21.5495C21.5975 54.916 21.7575 55.356 22.0295 55.62C22.3015 55.884 22.6615 56.016 23.1095 56.016C23.3895 56.016 23.6535 55.972 23.9015 55.884C24.1495 55.788 24.4135 55.644 24.6935 55.452L25.3295 56.328C24.6255 56.896 23.8415 57.18 22.9775 57.18C22.0095 57.18 21.2615 56.884 20.7335 56.292C20.2135 55.7 19.9535 54.892 19.9535 53.868C19.9535 53.22 20.0655 52.64 20.2895 52.128C20.5135 51.608 20.8375 51.204 21.2615 50.916C21.6855 50.62 22.1895 50.472 22.7735 50.472C23.6615 50.472 24.3495 50.756 24.8375 51.324C25.3255 51.884 25.5695 52.668 25.5695 53.676ZM24.0455 53.232C24.0455 52.12 23.6335 51.564 22.8095 51.564C22.4335 51.564 22.1375 51.704 21.9215 51.984C21.7135 52.256 21.5895 52.696 21.5495 53.304H24.0455V53.232ZM35.1554 53.676C35.1554 53.756 35.1434 53.964 35.1194 54.3H31.1354C31.1834 54.916 31.3434 55.356 31.6154 55.62C31.8874 55.884 32.2474 56.016 32.6954 56.016C32.9754 56.016 33.2394 55.972 33.4874 55.884C33.7354 55.788 33.9994 55.644 34.2794 55.452L34.9154 56.328C34.2114 56.896 33.4274 57.18 32.5634 57.18C31.5954 57.18 30.8474 56.884 30.3194 56.292C29.7994 55.7 29.5394 54.892 29.5394 53.868C29.5394 53.22 29.6514 52.64 29.8754 52.128C30.0994 51.608 30.4234 51.204 30.8474 50.916C31.2714 50.62 31.7754 50.472 32.3594 50.472C33.2474 50.472 33.9354 50.756 34.4234 51.324C34.9114 51.884 35.1554 52.668 35.1554 53.676ZM33.6314 53.232C33.6314 52.12 33.2194 51.564 32.3954 51.564C32.0194 51.564 31.7234 51.704 31.5074 51.984C31.2994 52.256 31.1754 52.696 31.1354 53.304H33.6314V53.232ZM42.8214 50.472C43.6214 50.472 44.2134 50.764 44.5974 51.348C44.9814 51.932 45.1734 52.752 45.1734 53.808C45.1734 54.464 45.0734 55.048 44.8734 55.56C44.6814 56.064 44.3934 56.46 44.0094 56.748C43.6334 57.036 43.1854 57.18 42.6654 57.18C41.9934 57.18 41.4614 56.948 41.0694 56.484V59.448L39.5334 59.616V50.652H40.8774L40.9614 51.432C41.2094 51.112 41.4934 50.872 41.8134 50.712C42.1334 50.552 42.4694 50.472 42.8214 50.472ZM42.2334 56.004C43.1214 56.004 43.5654 55.276 43.5654 53.82C43.5654 53.044 43.4654 52.484 43.2654 52.14C43.0654 51.796 42.7654 51.624 42.3654 51.624C42.1094 51.624 41.8694 51.704 41.6454 51.864C41.4214 52.016 41.2294 52.224 41.0694 52.488V55.344C41.3654 55.784 41.7534 56.004 42.2334 56.004Z" fill="white"/>
<g filter="url(#filter0_d_20_4)">
<path d="M42.037 32.1881H33.7502C33.4851 32.1881 33.2688 32.4061 33.2688 32.6734C33.2688 32.9407 33.4851 33.1587 33.7502 33.1587H42.037C42.3022 33.1587 42.5185 32.9407 42.5185 32.6734C42.5185 32.4061 42.3022 32.1881 42.037 32.1881Z" fill="white"/>
<path d="M42.037 38.34H32.7459C32.4807 38.34 32.2644 38.558 32.2644 38.8253C32.2644 39.0926 32.4807 39.3106 32.7459 39.3106H42.037C42.3022 39.3106 42.5185 39.0926 42.5185 38.8253C42.5185 38.558 42.3022 38.34 42.037 38.34Z" fill="white"/>
<path d="M4.48148 35.6916H11.9743C12.2395 35.6916 12.4558 35.4736 12.4558 35.2063C12.4558 34.939 12.2395 34.7209 11.9743 34.7209H4.48148C4.21629 34.7209 4 34.939 4 35.2063C4 35.4755 4.21629 35.6916 4.48148 35.6916Z" fill="white"/>
<path fill-rule="evenodd" clip-rule="evenodd" d="M7.74481 0.53458C7.93098 0.441691 8.15292 0.479604 8.29962 0.627475L8.29986 0.627703C8.44468 0.775549 8.48229 1.00114 8.38825 1.18883C8.08921 1.79168 7.93875 2.43434 7.93875 3.09976C7.93875 5.47703 9.86843 7.41262 12.2382 7.41262C12.9021 7.41262 13.5435 7.25906 14.1453 6.95953C14.3315 6.86664 14.5534 6.90455 14.7001 7.05242C14.8468 7.20027 14.8826 7.42587 14.7904 7.61165C13.8933 9.42591 12.0877 10.552 10.079 10.552C7.1768 10.552 4.81644 8.1802 4.81644 5.26641C4.81644 3.2474 5.93925 1.43508 7.74481 0.53458ZM13.1276 8.30699C12.8342 8.35818 12.5389 8.38283 12.238 8.38283L12.2381 8.383C9.33594 8.383 6.97557 6.01315 6.97745 3.09936C6.97745 2.79604 7.0019 2.49838 7.05268 2.20453C6.24772 2.99885 5.7794 4.09081 5.7794 5.2662C5.7794 7.64536 7.70908 9.58095 10.0789 9.58095C11.2506 9.58095 12.3358 9.11272 13.1276 8.30699Z" fill="white"/>
<path fill-rule="evenodd" clip-rule="evenodd" d="M42.039 24.4099H42.0371C41.7719 24.4099 41.5575 24.6261 41.5556 24.8934L41.5443 27.4848L23.677 0.923499C23.4983 0.656197 23.0601 0.656197 22.8796 0.923499L5.02529 27.4659L5.03658 24.7151C5.03846 24.4478 4.82217 24.2279 4.55698 24.2279H4.5551C4.28991 24.2279 4.0755 24.4441 4.07362 24.7114L4.05669 29.0527C4.05481 29.2669 4.19399 29.4546 4.39523 29.519C4.44225 29.5342 4.48927 29.5399 4.53817 29.5399C4.69428 29.5399 4.84474 29.4621 4.9369 29.3275L7.74677 25.1512V29.0564C7.74677 29.3237 7.96306 29.5418 8.22826 29.5418H18.9523C19.4996 31.3314 21.1603 32.6357 23.1201 32.6357C23.1266 32.6357 23.1327 32.6352 23.1388 32.6347L23.1389 32.6347C23.145 32.6342 23.1511 32.6338 23.1577 32.6338C23.1605 32.6338 23.1638 32.6342 23.1671 32.6347L23.1671 32.6347L23.1672 32.6347C23.1704 32.6352 23.1737 32.6357 23.1765 32.6357C23.1825 32.6357 23.1884 32.6351 23.1944 32.6343L23.2047 32.6328C23.2141 32.6314 23.2235 32.63 23.2329 32.63C25.1419 32.5807 26.75 31.2953 27.2861 29.5418H38.3303C38.5955 29.5418 38.8118 29.3237 38.8118 29.0564V25.1511L41.6216 29.3275C41.7401 29.5038 41.9583 29.5816 42.1595 29.519C42.3608 29.4564 42.5 29.2688 42.5 29.0564L42.5188 24.8971C42.5207 24.6279 42.3062 24.4118 42.0392 24.4099L42.039 24.4099ZM23.2328 31.6596L23.2274 31.66C23.2031 31.6617 23.1803 31.6634 23.1575 31.6634C22.3225 31.652 21.6454 30.9695 21.6454 30.1316C21.6454 29.58 22.4504 28.3098 23.1764 27.3524C23.9023 28.3098 24.7073 29.5799 24.7073 30.1316C24.7073 30.9563 24.0509 31.6293 23.2328 31.6596L23.2328 31.6596ZM25.6684 30.1297C25.6684 30.2738 25.6496 30.4103 25.627 30.5468L25.627 30.5468C26.1781 29.9402 26.5166 29.1382 26.5129 28.2567C26.5129 26.8027 24.3236 23.7088 23.1161 22.1694C21.9106 23.7088 19.7194 26.8045 19.7194 28.2567C19.7194 29.2122 20.1163 30.0766 20.7501 30.6965C20.7087 30.5126 20.6805 30.325 20.6805 30.1297C20.6805 28.9012 22.4503 26.6926 22.8039 26.2623C22.9864 26.0405 23.3625 26.0405 23.545 26.2623C23.9005 26.6927 25.6684 28.9013 25.6684 30.1297ZM23.4905 21.0889C23.308 20.8671 22.9319 20.8671 22.7494 21.0889C22.3413 21.5837 18.7602 25.9969 18.7602 28.257C18.7602 28.3331 18.7651 28.4083 18.7699 28.4831V28.4832C18.7718 28.5127 18.7737 28.5422 18.7753 28.5717H13.9268V25.3717C14.555 24.8598 16.637 23.0854 18.7454 20.452C20.457 18.3155 22.4111 15.2955 23.2969 11.8527C24.1828 15.2973 26.1369 18.3152 27.8484 20.452C29.9568 23.0852 32.0388 24.8597 32.6671 25.3717V28.5717H27.4628C27.4703 28.4675 27.4778 28.3632 27.4778 28.257C27.4797 25.9973 23.8987 21.5839 23.4906 21.0889H23.4905ZM33.6278 28.5715H37.8482L37.8507 23.7203L23.2801 2.06108L8.70954 23.7203V28.5715H12.962V25.1364C12.962 24.9847 13.0316 24.8426 13.1501 24.7516L13.1504 24.7513C13.2666 24.6595 22.8134 17.1171 22.8134 8.19016C22.8134 7.92285 23.0297 7.70484 23.2949 7.70484C23.5601 7.70484 23.7764 7.92285 23.7764 8.19016C23.7764 17.114 33.3165 24.6542 33.4392 24.7512L33.4397 24.7516C33.5582 24.8445 33.6278 24.9866 33.6278 25.1364V28.5715Z" fill="white"/>
<path fill-rule="evenodd" clip-rule="evenodd" d="M30.596 34.4329C30.6393 34.5542 30.6299 34.6907 30.5735 34.8063L30.5738 34.8063C30.5155 34.9239 30.4158 35.013 30.2917 35.0547L28.5106 35.6481L30.2221 36.1353C30.3462 36.1713 30.4515 36.2547 30.5136 36.3685C30.5757 36.4822 30.5888 36.6149 30.5531 36.74L29.9381 38.8292C29.8761 39.0396 29.6861 39.1761 29.4773 39.1761C29.4341 39.1761 29.3889 39.1685 29.3457 39.1571L23.2179 37.4111L17.5941 39.286C17.5452 39.3031 17.4945 39.3107 17.4437 39.3107C17.2443 39.3107 17.0581 39.1855 16.9923 38.9846L16.2832 36.9239C16.24 36.8026 16.2494 36.6661 16.3058 36.5504C16.3622 36.4329 16.4638 36.3457 16.586 36.304L18.0718 35.8092L16.287 35.3011C16.1628 35.2651 16.0575 35.1817 15.9955 35.0679C15.9334 34.9542 15.9202 34.8215 15.956 34.6964L16.571 32.6072C16.6462 32.3513 16.9095 32.2053 17.1634 32.2774L23.3644 34.0442L29.2813 32.0707C29.5315 31.9873 29.8004 32.1219 29.8869 32.3722L30.596 34.4329ZM17.3592 33.3409L17.0169 34.4992L19.7026 35.2651L21.7339 34.5883L17.3592 33.3409ZM29.4901 36.9352L29.1478 38.0936L24.8483 36.867L26.8796 36.1902L29.4901 36.9352ZM17.3499 37.0717L17.7429 38.2149L29.5262 34.2868L29.1331 33.1437L17.3499 37.0717Z" fill="white"/>
</g>
<defs>
<filter id="filter0_d_20_4" x="0" y="0.484131" width="46.5188" height="46.8265" filterUnits="userSpaceOnUse" color-interpolation-filters="sRGB">
<feFlood flood-opacity="0" result="BackgroundImageFix"/>
<feColorMatrix in="SourceAlpha" type="matrix" values="0 0 0 0 0 0 0 0 0 0 0 0 0 0 0 0 0 0 127 0" result="hardAlpha"/>
<feOffset dy="4"/>
<feGaussianBlur stdDeviation="2"/>
<feColorMatrix type="matrix" values="0 0 0 0 0 0 0 0 0 0 0 0 0 0 0 0 0 0 0.25 0"/>
<feBlend mode="normal" in2="BackgroundImageFix" result="effect1_dropShadow_20_4"/>
<feBlend mode="normal" in="SourceGraphic" in2="effect1_dropShadow_20_4" result="shape"/>
</filter>
</defs>
</svg>
